<svg width="31" height="31" viewBox="0 0 31 31" fill="none" xmlns="http://www.w3.org/2000/svg">
<path d="M19.0667 6.66668C20.369 6.92076 21.5658 7.55769 22.5041 8.49592C23.4423 9.43416 24.0792 10.631 24.3333 11.9333M19.0667 1.33334C21.7724 1.63393 24.2955 2.84558 26.2217 4.76935C28.1479 6.69313 29.3627 9.21469 29.6667 11.92M28.3333 22.56V26.56C28.3348 26.9313 28.2588 27.2989 28.11 27.6391C27.9612 27.9794 27.7431 28.2848 27.4694 28.5358C27.1958 28.7869 26.8728 28.978 26.521 29.097C26.1692 29.2159 25.7965 29.2601 25.4267 29.2267C21.3238 28.7809 17.3827 27.3789 13.92 25.1333C10.6984 23.0862 7.96711 20.3549 5.92 17.1333C3.66664 13.6549 2.26432 9.69467 1.82666 5.57334C1.79334 5.20463 1.83716 4.83302 1.95533 4.48218C2.0735 4.13133 2.26343 3.80893 2.51302 3.53551C2.76261 3.26208 3.0664 3.04362 3.40505 2.89404C3.7437 2.74446 4.10978 2.66703 4.48 2.66668H8.48C9.12707 2.66031 9.75439 2.88945 10.245 3.31139C10.7356 3.73333 11.0561 4.31927 11.1467 4.96001C11.3155 6.2401 11.6286 7.49698 12.08 8.70668C12.2594 9.18391 12.2982 9.70256 12.1919 10.2012C12.0855 10.6998 11.8385 11.1575 11.48 11.52L9.78666 13.2133C11.6847 16.5514 14.4486 19.3153 17.7867 21.2133L19.48 19.52C19.8425 19.1615 20.3002 18.9145 20.7988 18.8081C21.2974 18.7018 21.8161 18.7406 22.2933 18.92C23.503 19.3714 24.7599 19.6845 26.04 19.8533C26.6877 19.9447 27.2792 20.271 27.702 20.77C28.1249 21.2691 28.3496 21.9061 28.3333 22.56Z" stroke="#C91F1F" stroke-width="3" stroke-linecap="round" stroke-linejoin="round"/>
</svg>
